# xmcd
#
# Track frame offsets: 
#        182
#        15135
#        30072
#        40410
#        59897
#        77010
#        90642
#        106635
#        127022
#        147980
#        158487
#        168715
#
# Disc length: 2479 seconds
#
# Revision: 2
# Processed by: cddbd v1.4PL0 Copyright (c) Steve Scherf et al.
# Submitted via: ExactAudioCopy v0.90b3
#
DISCID=8c09ad0c
DTITLE=George Jones - Live With The Possum
DYEAR=1900
DGENRE=Country
TTITLE0=No Show Jones
TTITLE1=Once You've Had The Best
TTITLE2=The Race Is On
TTITLE3=Bartender's Blues
TTITLE4=A Picture Of Me (Without You)
TTITLE5=The One I Loved Back Then (The Corvette Song)
TTITLE6=Who's Gonna Fill Their Shoes
TTITLE7=She Loved A Lot In Her Time
TTITLE8=Medley
TTITLE9=One Woman Man
TTITLE10=Orange Blossum Special (Instrumental)
TTITLE11=He Stopped Loving Her Today
EXTD=
EXTT0=
EXTT1=
EXTT2=
EXTT3=
EXTT4=
EXTT5=
EXTT6=
EXTT7=
EXTT8=I'll Share My World With You/Window Up Above/The Grand Tour/Walk
EXTT8=Through This World With Me
EXTT9=
EXTT10=
EXTT11=
PLAYORDER=
